<?xml version="1.0" standalone="no"?>
<!DOCTYPE svg PUBLIC "-//W3C//DTD SVG 1.0//EN" "http://www.w3.org/TR/2001/REC-SVG-20010904/DTD/svg10.dtd">
<svg xmlns="http://www.w3.org/2000/svg" xmlns:xlink="http://www.w3.org/1999/xlink" id="body_1" width="16" height="12">

<g transform="matrix(0.012 0 0 0.012 2.0000005 -0)">
	<g>
        <path d="M898.1 256.2L747.5 256.2L747.5 193.70001C 747.5 109.20001 884.7 104.90001 885.9 104.90001C 911 104.30001 931.2 82.90001 930.60004 56.500008C 929.9 30.2 909.1 10.6 884 10C 832.7 11.2 752.1 28.7 701.8 79.6C 651.3 28.6 570.6 11.1 519.6 10C 493.89996 10 473.09998 30.2 472.39996 56.5C 472.39996 82.8 491.99997 104.3 517.69995 104.9C 518.89996 104.9 656.1 108.6 656.1 193.70001L656.1 193.70001L656.1 256.2L101.3 256.2C 50.500004 256.2 10 305.2 10 357.30002L10 357.30002L10 653.1C 10 705.19995 54.1 739.5 104.9 739.5L104.9 739.5L656.10004 739.5L656.10004 839.3C 638.9 857.7 595.50006 895 518.30005 895C 493.20004 895 472.40005 916.4 472.40005 942.8C 472.40005 968.5 493.20004 989.89996 518.30005 989.89996C 606.9 989.89996 666.7001 954.39996 701.60004 924.19995C 736.50006 954.39996 796.10004 989.89996 884.60004 989.89996C 910.4 989.89996 930.50006 968.49994 930.50006 942.8C 930.50006 916.39996 910.30005 895 884.60004 895C 807.4 895 764.00006 857.6 747.4 839.9L747.4 839.9L747.4 739.5L901.80005 739.5C 952.00006 739.5 990.00006 705.2 990.00006 653.1L990.00006 653.1L990.00006 357.3C 990 305.2 948.4 256.2 898.1 256.2zM70.6 684.3L68.799995 313.09998L656.2 314.3L656.2 686.69995L70.6 684.3zM929.4 688L747.5 687.2L747.5 314.6L929.4 315L929.4 688zM501.2 562.4L194.30002 560.60004L192.50002 438.70004L499.40002 438.70004L501.2 562.4z" stroke="none" fill="#000000" fill-rule="nonzero" />
	</g>
</g>
</svg>